<svg width="37" height="30" viewBox="0 0 37 30" fill="none" xmlns="http://www.w3.org/2000/svg">
<path d="M18.6667 22H5.33333C4.44928 22 3.60143 21.6488 2.97631 21.0237C2.35119 20.3986 2 19.5507 2 18.6667V5.33333C2 4.44928 2.35119 3.60143 2.97631 2.97631C3.60143 2.35119 4.44928 2 5.33333 2H32C32.8841 2 33.7319 2.35119 34.357 2.97631C34.9821 3.60143 35.3333 4.44928 35.3333 5.33333V13.6667" stroke="#5E5E5E" stroke-width="2.5" stroke-linecap="round" stroke-linejoin="round"/>
<path d="M25.334 23.666L30.334 28.666L35.334 23.666" stroke="#5E5E5E" stroke-width="2.5" stroke-linecap="round" stroke-linejoin="round"/>
<path d="M28.667 12H28.6837" stroke="#5E5E5E" stroke-width="2.5" stroke-linecap="round" stroke-linejoin="round"/>
<path d="M30.334 18.666V28.666" stroke="#5E5E5E" stroke-width="2.5" stroke-linecap="round" stroke-linejoin="round"/>
<path d="M8.66699 12H8.68366" stroke="#5E5E5E" stroke-width="2.5" stroke-linecap="round" stroke-linejoin="round"/>
<path d="M18.6673 15.3327C20.5083 15.3327 22.0007 13.8403 22.0007 11.9993C22.0007 10.1584 20.5083 8.66602 18.6673 8.66602C16.8264 8.66602 15.334 10.1584 15.334 11.9993C15.334 13.8403 16.8264 15.3327 18.6673 15.3327Z" stroke="#5E5E5E" stroke-width="2.5" stroke-linecap="round" stroke-linejoin="round"/>
</svg>
