<svg xmlns="http://www.w3.org/2000/svg" version="1.1" xmlns:xlink="http://www.w3.org/1999/xlink" width="1500" height="111" viewBox="0 0 1500 111"><svg xml:space="preserve" width="1500" height="111" data-version="2" data-id="lg_3PU4PEhMSxnvMnI5JN" viewBox="0 0 549 111" x="0" y="0"><rect width="100%" height="100%" fill="transparent"></rect><circle r="50" fill="none" stroke="#fff9ef" stroke-width="5" paint-order="stroke" transform="translate(45.87 51.2)scale(.7704)" vector-effect="non-scaling-stroke"></circle><rect width="25.64" height="54.43" x="-12.82" y="-27.22" fill="#354ead" rx="0" ry="0" transform="rotate(20 -140.44 253.95)scale(.7704)" vector-effect="non-scaling-stroke"></rect><circle r="3.74" fill="#fff9ef" transform="translate(74.58 71.75)scale(.7704)" vector-effect="non-scaling-stroke"></circle><circle r="3.74" fill="#fff9ef" transform="translate(80.34 57.89)scale(.7704)" vector-effect="non-scaling-stroke"></circle><path fill="#fff9ef" d="M136.364 84.955q-7.07 0-13.39-2.2-6.32-2.19-9.96-6.05-1.39-1.6-1.18-3.53.22-1.93 1.93-3.32 1.82-1.39 3.75-1.18 1.93.21 3.21 1.71 2.15 2.36 6.27 4.07 4.12 1.72 9.05 1.72 6.96 0 10.33-2.31 3.38-2.3 3.48-5.73 0-3.53-3.32-5.94-3.32-2.41-11.67-3.8-10.82-2.04-15.74-6.32-4.93-4.28-4.93-10.39 0-5.46 3.05-9.05 3.06-3.58 8.03-5.35 4.98-1.77 10.55-1.77 7.07 0 12.43 2.3 5.35 2.31 8.56 6.38 1.4 1.6 1.23 3.32-.16 1.71-1.76 2.89-1.61.96-3.7.64-2.09-.32-3.48-1.82-2.67-2.78-5.94-3.91-3.27-1.12-7.55-1.12-5.14 0-8.51 1.92-3.38 1.93-3.38 5.25 0 2.14 1.13 3.75 1.12 1.61 4.23 2.94 3.1 1.34 8.89 2.41 8.03 1.5 12.69 3.97 4.65 2.46 6.69 5.78 2.03 3.32 2.03 7.5 0 4.92-2.73 8.83t-7.87 6.16q-5.14 2.25-12.42 2.25m41.87 24.63q-2.14 0-3.53-1.39-1.4-1.4-1.4-3.54v-49.58q.11-8.35 4.02-15.1 3.91-6.75 10.55-10.6 6.64-3.86 14.99-3.86 8.46 0 15.16 3.91 6.69 3.91 10.6 10.6 3.91 6.7 3.91 15.26 0 8.46-3.7 15.21-3.69 6.75-10.01 10.6-6.32 3.86-14.24 3.86-6.75 0-12.21-2.79-5.46-2.78-9.21-7.49v29.98q0 2.14-1.34 3.54-1.34 1.39-3.59 1.39m24.63-33.41q5.68 0 10.23-2.73 4.55-2.74 7.17-7.5 2.63-4.77 2.63-10.66 0-5.99-2.63-10.76-2.62-4.76-7.17-7.5-4.55-2.73-10.23-2.73-5.67 0-10.23 2.79-4.55 2.78-7.12 7.49-2.57 4.72-2.57 10.71 0 5.89 2.57 10.66 2.57 4.76 7.12 7.5 4.56 2.73 10.23 2.73m73.14 8.78q-8.88 0-15.68-3.8-6.8-3.81-10.66-10.5-3.85-6.69-3.85-15.37 0-8.78 3.64-15.47 3.64-6.69 10.06-10.5 6.43-3.8 14.89-3.8 8.24 0 14.24 3.7 6 3.69 9.21 10.17 3.21 6.48 3.21 14.94 0 1.82-1.23 3.05-1.23 1.23-3.26 1.23h-44.02v-7.92h44.12l-4.39 3.1q-.1-5.67-2.25-10.17-2.14-4.5-6.1-7.07-3.96-2.57-9.53-2.57-6.11 0-10.55 2.79-4.44 2.78-6.8 7.6-2.36 4.82-2.36 10.92 0 6.11 2.73 10.87 2.74 4.77 7.5 7.55 4.77 2.79 11.08 2.79 3.43 0 7.13-1.29 3.69-1.28 5.83-3 1.5-1.17 3.22-1.23 1.71-.05 2.99 1.02 1.61 1.5 1.72 3.27.1 1.76-1.5 3.05-3.64 2.89-9.05 4.76-5.41 1.88-10.34 1.88m88.78-.32q-2.14 0-3.58-1.45-1.45-1.45-1.45-3.48v-26.99q0-6.32-2.36-10.33-2.35-4.02-6.31-6-3.97-1.98-9.11-1.98-4.82 0-8.67 1.93-3.86 1.93-6.16 5.14-2.3 3.21-2.3 7.39h-6.43q.11-6.75 3.43-12.05 3.32-5.3 9-8.35 5.67-3.05 12.74-3.05 7.5 0 13.39 3.15 5.89 3.16 9.31 9.27 3.43 6.1 3.43 14.88v26.99q0 2.03-1.45 3.48-1.44 1.45-3.48 1.45m-44.87 0q-2.14 0-3.53-1.4-1.39-1.39-1.39-3.53v-48.83q0-2.25 1.39-3.59 1.39-1.34 3.53-1.34 2.25 0 3.59 1.34 1.34 1.34 1.34 3.59v48.83q0 2.14-1.34 3.53-1.34 1.4-3.59 1.4m94.46.32q-8.36 0-15.05-3.91-6.69-3.91-10.6-10.66-3.91-6.74-3.91-15.2 0-8.46 3.64-15.16 3.64-6.69 9.96-10.6 6.32-3.91 14.35-3.91 6.64 0 12.15 2.79 5.52 2.78 9.16 7.49V5.815q0-2.25 1.39-3.59 1.39-1.34 3.54-1.34 2.25 0 3.64 1.34 1.39 1.34 1.39 3.59v49.58q-.11 8.35-4.02 15.1-3.9 6.75-10.6 10.6-6.69 3.86-15.04 3.86m0-8.78q5.78 0 10.28-2.73 4.49-2.74 7.12-7.5 2.62-4.77 2.62-10.76 0-6-2.62-10.71-2.63-4.71-7.12-7.45-4.5-2.73-10.28-2.73-5.57 0-10.18 2.73-4.6 2.74-7.23 7.45-2.62 4.71-2.62 10.71 0 5.99 2.62 10.76 2.63 4.76 7.23 7.5 4.61 2.73 10.18 2.73m63.07 8.35h-.75q-4.5 0-8.03-2.46-3.53-2.47-5.51-6.8-1.99-4.34-1.99-10.02V5.705q0-2.14 1.34-3.48 1.34-1.34 3.48-1.34 2.25 0 3.59 1.34 1.34 1.34 1.34 3.48v59.54q0 4.18 1.66 6.86 1.66 2.67 4.12 2.67h2.68q2.03 0 3.21 1.34 1.18 1.34 1.18 3.59 0 2.14-1.77 3.48-1.76 1.34-4.55 1.34m27.52 25.59q-.96 0-2.24-.53-4.29-1.93-2.36-6.11l33.41-74.74q1.93-4.07 6.11-2.36 4.39 1.82 2.46 6.1l-33.52 74.65q-1.29 2.99-3.86 2.99m12.43-27.73q-1.93.85-3.54.21-1.6-.64-2.57-2.46l-24.31-47.76q-.96-1.82-.26-3.54.69-1.71 2.62-2.46 1.82-.86 3.48-.27t2.52 2.52l23.45 47.65q1.07 1.93.75 3.59-.32 1.66-2.14 2.52"></path><path fill="#fff9ef" d="M46.164 71.555q-3.15 0-5.93-.96t-4.85-2.68q-2.07-1.73-3.05-4.04-.49-.93-.03-1.72.47-.79 1.55-1.03.84-.2 1.63.22.79.42 1.18 1.25.64 1.33 2.02 2.39 1.37 1.06 3.32 1.7 1.94.64 4.16.64 2.46 0 4.45-.79 1.99-.79 3.2-2.29 1.2-1.5 1.2-3.67 0-2.75-2.11-4.87-2.12-2.11-6.79-2.65-5.96-.64-9.35-3.6-3.4-2.95-3.4-7.28 0-3.15 1.72-5.39 1.73-2.23 4.73-3.42 3-1.18 6.79-1.18 2.85 0 5.09.84 2.24.84 3.89 2.29 1.65 1.45 2.83 3.32.59.98.46 1.84-.12.87-.91 1.36-.88.49-1.84.19-.96-.29-1.45-1.13-.74-1.33-1.87-2.31-1.13-.98-2.68-1.57-1.55-.59-3.67-.59-3.74-.05-6.15 1.45t-2.41 4.5q0 1.57.81 2.93.81 1.35 2.85 2.36 2.05 1.01 5.74 1.45 5.95.69 9.1 3.62 3.15 2.92 3.15 7.7 0 2.75-1.06 4.82-1.06 2.07-2.93 3.47-1.87 1.4-4.3 2.11-2.44.72-5.09.72" paint-order="stroke"></path></svg></svg>